<svg xmlns="http://www.w3.org/2000/svg" version="1.1" xmlns:xlink="http://www.w3.org/1999/xlink" xmlns:svgjs="http://svgjs.dev/svgjs" width="1000" height="1125" viewBox="0 0 1000 1125"><g transform="matrix(1,0,0,1,1.7053025658242404e-13,0)"><svg viewBox="0 0 320 360" data-background-color="#ffffff" preserveAspectRatio="xMidYMid meet" height="1125" width="1000" xmlns="http://www.w3.org/2000/svg" xmlns:xlink="http://www.w3.org/1999/xlink"><g id="tight-bounds" transform="matrix(1,0,0,1,0,0)"><svg viewBox="0 0 320 360" height="360" width="320"><g><svg></svg></g><g><svg viewBox="0 0 320 360" height="360" width="320"><g><path xmlns="http://www.w3.org/2000/svg" d="M20.961 227.22l3.726 4.658-1.863-6.056c-0.466-2.795-3.726 0.466-1.863 1.398M25.153 224.425c1.397 2.329 2.795 4.658 2.795 6.987 0 3.261 2.795 4.658 5.123 5.589-3.261-3.726-5.124-13.974-7.918-12.576M204.017 26.929c7.918 0 15.371-0.932 23.756 0.931 20.495 5.124 37.729 15.371 49.374 29.811l32.606 52.169c1.397 13.042 4.192 27.482 3.726 43.319 3.261 0 2.795-4.658 6.521-5.59-3.726 9.316-5.59 20.961-6.521 34.469-2.329-7.453 0-18.632 0.466-24.687-3.261 5.124-5.124 1.397-5.124-0.932 0.466-3.726-1.397-3.261-2.795-4.658-5.124-4.658-8.384-9.782-12.11-17.7 2.329-6.055 2.795-14.905-4.658-19.563-2.329-1.397-5.124-3.726-6.521-7.453-1.863-5.124-5.124-11.179-4.193-19.097 0.466-2.329-6.987 5.124-11.179 1.863-18.166-12.576-36.332-27.016-58.224-39.127-11.645 0-20.029-4.192-24.221-9.316-3.726-4.658-0.932-10.713 4.658-11.179 3.261 0 6.987-0.932 9.782 0.932 0.466-1.863 2.329-4.192 4.657-4.192M157.904 16.215l0.932 0.466c4.658 0.932 6.987 7.453 12.11 5.124 0 3.261 0.466 6.521-0.466 8.85-1.397 3.726-5.59 3.726-8.85 3.726-31.208-1.863-49.374 11.179-68.471 22.358-5.124 3.261-10.713 5.59-14.906 9.782-20.029 18.632-41.921 35.866-47.045 70.335l-4.192 38.195c-0.466 4.192-5.124 8.384-4.192 13.508l3.26 22.824c-3.261-3.261-5.124 0.932-4.192 2.795 0.466 1.397 2.329 6.055 5.124 1.863 3.726 6.987 7.453 20.495 12.576 26.55 15.837 18.632 36.332 35.4 53.101 52.169 4.192-0.932 7.453-0.932 8.384-3.727 1.397 2.795-1.397 5.59-3.726 6.056 7.453 4.658 15.837 8.85 27.016 9.781 14.44 0.932 27.948 3.261 40.524 6.522 6.521-1.863 13.042-2.795 20.029-3.261 2.329 0 3.726-3.726 6.521-4.658l0.466-4.658c2.795 4.192 2.329-1.397 0.466-4.192 3.261 2.795 4.192 5.124 5.589 6.987 0-1.397 3.726-6.521 3.727-0.466l0.931-6.055c1.397-0.932 1.863 5.124 3.261 0.931 1.397-4.192 4.192-0.932 6.987-2.329-0.932 1.863-0.466 5.59 2.794 3.261l3.727-3.261c2.329 5.59 6.055 3.261 7.918 2.329 20.495-13.042 40.99-28.413 60.553-43.784l-0.466 6.055 2.329-7.453c2.329 2.329 4.192 0.466 5.124-0.931 2.795-4.658 6.521-9.316 12.577-13.508-7.453 20.029-16.303 35.866-27.482 48.908l-4.658 5.59c0 3.261-0.932 7.453-4.658 7.918-1.863 0.466-5.59-0.932-8.384 1.863-1.397 1.863 3.261 5.59-0.466 2.795-3.261-2.329-6.521 0-10.248 0.932-2.795 0.932 1.863 3.726 2.795 5.589 0.932 1.863 1.863 3.726 1.398 6.056l-5.124-5.59c-6.055 3.261-9.782 9.316-14.906 13.974-2.329 1.863-1.397 5.124-1.397 7.918-3.261 0-6.987-0.932-8.85 0.932-1.397 1.863-0.932 4.658-0.932 7.453-4.658-0.466-5.124-7.453-9.315-6.056-4.192 0.932-8.85 1.397-12.577 3.727 2.795 5.59-4.658 2.329-3.726 3.26-6.987-4.192-13.042-7.453-20.495-4.658-15.837-5.124-35.4-2.795-49.84-0.931 0-2.329 0.466-4.658-0.466-5.124-0.932 2.329-3.726 1.397-3.26 1.397-8.85-6.055-17.7-9.782-27.016-14.905-8.384 0.932-16.303-3.261-18.632-5.59-6.521-6.055-13.974-2.795-20.029-4.192-13.042-3.261-17.7-16.769-19.098-26.084-0.932-4.658-4.658-6.521-6.055-6.056-6.055-19.563-15.371-37.263-22.824-55.429-1.863-4.658-1.397-9.316-1.397-14.44 2.329 0.932 4.658 0.466 4.192-2.794-2.329-15.371-7.918-27.016-13.974-38.195 3.261-15.837 3.726-34.469 11.179-48.443 6.521-12.576 18.632-19.098 27.016-29.811 2.795-3.726 2.795-8.85 5.59-12.11 9.316-9.316 18.632-19.098 28.879-27.482 4.658-3.726 10.247 0 17.234-1.397 2.329-8.384 11.645-15.837 20.495-13.508 3.726 0.932 11.179-8.85 13.508-9.782 3.726-1.397 1.863 3.726 1.863 6.987 8.85-6.987 20.961-10.713 32.14-14.906" fill="#ecab55" fill-rule="nonzero" stroke="none" stroke-width="1" stroke-linecap="butt" stroke-linejoin="miter" stroke-miterlimit="10" stroke-dasharray="" stroke-dashoffset="0" font-family="none" font-weight="none" font-size="none" text-anchor="none" style="mix-blend-mode: normal" data-fill-palette-color="tertiary"></path></g><g transform="matrix(1,0,0,1,64,122.775)"><svg viewBox="0 0 192 114.44999999999999" height="114.44999999999999" width="192"><g><svg viewBox="0 0 192 114.44999999999999" height="114.44999999999999" width="192"><g><svg viewBox="0 0 192 114.44999999999999" height="114.44999999999999" width="192"><g><svg viewBox="0 0 192 114.44999999999999" height="114.44999999999999" width="192"><g id="textblocktransform"><svg viewBox="0 0 192 114.44999999999999" height="114.44999999999999" width="192" id="textblock"><g><svg viewBox="0 0 192 114.44999999999999" height="114.44999999999999" width="192"><g transform="matrix(1,0,0,1,0,0)"><svg width="192" viewBox="2 -37.599998474121094 64 38.14999771118164" height="114.44999999999999" data-palette-color="#ecab55"><path d="M28.5 0Q27.75 0 26.55-1.93 25.35-3.85 23.2-8.05L23.2-8.05Q21.35-11.65 20.1-13.85 18.85-16.05 17.7-17.5L17.7-17.5 13.25-12.4 13.25-3.5 17.55-2.95 17.55 0 2 0 2-3 5.95-3.5 5.95-33.4 2.05-34.05 2.05-37.15 17.1-37.15 17.1-34.05 13.25-33.4 13.25-17.1 26.4-33.4 22.3-34.05 22.3-37.15 35.8-37.15 35.8-34.05 31.65-33.4 21.95-22.5Q23.7-20.9 25.65-17.98 27.6-15.05 30.4-10.35L30.4-10.35Q32.45-6.9 33.5-5.33 34.55-3.75 35.1-3.5L35.1-3.5 37.45-2.95 37.45 0 28.5 0ZM52.15 0.55Q49.45 0.55 47.3 0.1 45.15-0.35 42.5-1.1L42.5-1.1Q40.75-1.6 40.15-1.65L40.15-1.65 40.6-10.9 44.65-10.9 45.75-4.45Q46.4-3.75 48.07-3.2 49.75-2.65 51.9-2.65L51.9-2.65Q55.25-2.65 56.92-4.13 58.6-5.6 58.6-8.25L58.6-8.25Q58.6-10 57.6-11.28 56.6-12.55 54.85-13.58 53.1-14.6 50.05-15.95L50.05-15.95Q45.9-17.85 43.17-20.48 40.45-23.1 40.45-27.6L40.45-27.6Q40.45-30.4 41.9-32.68 43.35-34.95 46.22-36.27 49.1-37.6 53.25-37.6L53.25-37.6Q55.7-37.6 57.57-37.25 59.45-36.9 61.65-36.3L61.65-36.3Q62.95-35.95 63.6-35.85L63.6-35.85 63.3-27.1 59.3-27.1 58.25-33.25Q57.8-33.7 56.45-34.13 55.1-34.55 53.45-34.55L53.45-34.55Q50.45-34.55 48.92-33.18 47.4-31.8 47.4-29.5L47.4-29.5Q47.4-27.65 48.52-26.3 49.65-24.95 51.25-24.03 52.85-23.1 56.3-21.4L56.3-21.4Q59.1-20.05 61.1-18.75 63.1-17.45 64.55-15.38 66-13.3 66-10.5L66-10.5Q66-7.75 64.62-5.25 63.25-2.75 60.12-1.1 57 0.55 52.15 0.55L52.15 0.55Z" opacity="1" transform="matrix(1,0,0,1,0,0)" fill="#ecab55" class="undefined-text-0" data-fill-palette-color="primary" id="text-0"></path></svg></g></svg></g></svg></g></svg></g><g></g></svg></g></svg></g></svg></g></svg></g><defs></defs></svg><rect width="320" height="360" fill="none" stroke="none" visibility="hidden"></rect></g></svg></g></svg>